<svg width="18" height="18" viewBox="0 0 18 18" fill="none" xmlns="http://www.w3.org/2000/svg">
<path fill-rule="evenodd" clip-rule="evenodd" d="M9.60001 3.30068C9.60001 2.96932 9.33138 2.70068 9.00001 2.70068C8.66864 2.70068 8.40001 2.96932 8.40001 3.30068V8.40068H3.30001C2.96864 8.40068 2.70001 8.66932 2.70001 9.00068C2.70001 9.33205 2.96864 9.60068 3.30001 9.60068H8.40001V14.7007C8.40001 15.032 8.66864 15.3007 9.00001 15.3007C9.33138 15.3007 9.60001 15.032 9.60001 14.7007V9.60068H14.7C15.0313 9.60068 15.3 9.33205 15.3 9.00068C15.3 8.66932 15.0313 8.40068 14.7 8.40068H9.60001V3.30068Z" fill="black"/>
</svg>
