<svg width="18" height="18" viewBox="0 0 18 18" fill="none" xmlns="http://www.w3.org/2000/svg">
<g clip-path="url(#clip0_701_563)">
<path fill-rule="evenodd" clip-rule="evenodd" d="M16.5563 16.7482C16.7943 16.854 17.0732 16.7942 17.2469 16.6003C17.4206 16.4064 17.4495 16.1225 17.3183 15.8976L13.2946 8.99996L17.3183 2.10227C17.4495 1.87739 17.4206 1.59359 17.2469 1.39967C17.0732 1.20575 16.7943 1.14599 16.5563 1.25171L0.356307 8.45168C0.139706 8.54798 2.54982e-05 8.76285 2.54774e-05 8.99996C2.54567e-05 9.23708 0.139706 9.45195 0.356307 9.54825L16.5563 16.7482ZM12.1854 9.47996L15.3452 14.8968L2.07735 8.99996L15.3452 3.10319L12.1854 8.51996L7.20003 8.51996C6.93493 8.51996 6.72003 8.73486 6.72003 8.99996C6.72003 9.26506 6.93493 9.47996 7.20003 9.47996L12.1854 9.47996Z" fill="black"/>
</g>
<defs>
<clipPath id="clip0_701_563">
<rect width="18" height="18" fill="white" transform="translate(18 18) rotate(-180)"/>
</clipPath>
</defs>
</svg>
