<svg width="46" height="18" viewBox="0 0 46 18" fill="none" xmlns="http://www.w3.org/2000/svg">
<path d="M3.22455 14H1.09655V4.228H5.73055C6.17856 4.228 6.58456 4.30267 6.94856 4.452C7.31256 4.60133 7.62056 4.816 7.87256 5.096C8.13389 5.36667 8.33456 5.69333 8.47456 6.076C8.61456 6.45867 8.68455 6.88333 8.68455 7.35C8.68455 8.01267 8.53522 8.59133 8.23655 9.086C7.94722 9.58067 7.50389 9.94 6.90655 10.164L8.82455 14H6.45855L4.75056 10.416H3.22455V14ZM5.46456 8.624C5.78189 8.624 6.02922 8.54467 6.20656 8.386C6.39322 8.218 6.48655 7.97533 6.48655 7.658V7.042C6.48655 6.72467 6.39322 6.48667 6.20656 6.328C6.02922 6.16 5.78189 6.076 5.46456 6.076H3.22455V8.624H5.46456ZM12.3547 4.228V10.22C12.3547 10.9107 12.4901 11.4287 12.7607 11.774C13.0314 12.11 13.4841 12.278 14.1187 12.278C14.7534 12.278 15.2061 12.11 15.4767 11.774C15.7474 11.4287 15.8827 10.9107 15.8827 10.22V4.228H17.9547V9.996C17.9547 10.7147 17.8847 11.34 17.7447 11.872C17.6141 12.3947 17.3947 12.8287 17.0867 13.174C16.7787 13.51 16.3821 13.762 15.8967 13.93C15.4114 14.0887 14.8187 14.168 14.1187 14.168C13.4187 14.168 12.8261 14.0887 12.3407 13.93C11.8554 13.762 11.4587 13.51 11.1507 13.174C10.8427 12.8287 10.6187 12.3947 10.4787 11.872C10.3481 11.34 10.2827 10.7147 10.2827 9.996V4.228H12.3547Z" fill="black"/>
<path d="M28.7717 14V4.228H34.7357V5.264H29.9477V8.54H34.4557V9.576H29.9477V12.964H34.7357V14H28.7717ZM39.2998 8.036L38.1238 5.866H38.0818V14H36.9338V4.228H38.2918L41.8618 10.192L43.0378 12.362H43.0798V4.228H44.2278V14H42.8698L39.2998 8.036Z" fill="black"/>
<path d="M22.5208 15.932V3.36H23.4728V15.932H22.5208Z" fill="black"/>
</svg>
