<svg width="30" height="30" viewBox="0 0 30 30" fill="none" xmlns="http://www.w3.org/2000/svg">
<path fill-rule="evenodd" clip-rule="evenodd" d="M3 6C2.44772 6 2 6.44772 2 7C2 7.55228 2.44772 8 3 8H27C27.5522 8 28 7.55228 28 7C28 6.44772 27.5522 6 27 6H3ZM2 15C2 14.4477 2.44772 14 3 14H27C27.5522 14 28 14.4477 28 15C28 15.5523 27.5522 16 27 16H3C2.44772 16 2 15.5523 2 15ZM2 23C2 22.4478 2.44772 22 3 22H27C27.5522 22 28 22.4478 28 23C28 23.5522 27.5522 24 27 24H3C2.44772 24 2 23.5522 2 23Z" fill="black"/>
</svg>
